<svg width="84" height="72" viewBox="0 0 84 72" fill="none" xmlns="http://www.w3.org/2000/svg">
<mask id="path-1-outside-1_1_1689" maskUnits="userSpaceOnUse" x="0" y="0" width="84" height="72" fill="black">
<rect fill="white" width="84" height="72"/>
<path d="M83 7.82148V64.1768C82.9572 64.2786 82.893 64.3737 82.8716 64.48C82.0479 68.5313 79.2195 70.9711 75.302 70.996C73.8878 71.005 72.4736 70.996 71.0572 70.996C50.3189 70.996 29.5805 70.9982 8.84003 70.996C4.26788 70.996 1.0094 67.6645 1.00512 62.9456C0.99656 44.9775 0.99656 27.014 1.02223 9.05043C1.02223 8.13381 1.172 7.18098 1.44372 6.31188C2.4878 2.9713 5.2756 1 8.84431 1C30.9434 1 53.0446 1 75.1437 1C75.3576 1 75.5716 1 75.7834 1.00905C78.7338 1.16974 80.8883 2.6635 82.2169 5.436C82.5721 6.17835 82.7432 7.02028 82.9978 7.81695L83 7.82148ZM15.6416 67.5603C15.6416 64.1903 15.6416 60.9109 15.6416 57.6314C15.6416 55.0581 15.6244 52.4825 15.648 49.9091C15.6715 47.3947 17.1628 45.8398 19.5162 45.833C21.2514 45.8285 22.9865 45.8307 24.7195 45.833C27.2891 45.8353 28.7247 47.3562 28.7268 50.0902C28.7311 55.5786 28.7268 61.0648 28.7268 66.5532C28.7268 66.8814 28.7268 67.2095 28.7268 67.5558H33.5215C33.5215 67.205 33.5215 66.9017 33.5215 66.5985C33.5215 63.7128 33.5172 60.8271 33.5258 57.9437C33.5258 57.5228 33.5536 57.095 33.6178 56.6808C33.8382 55.2482 34.6811 54.2659 35.8044 53.4942C34.4329 49.9997 33.0829 46.5595 31.7329 43.1216C30.4984 39.9779 30.9284 37.9116 33.2348 35.5623C36.1103 32.6336 38.8168 29.5579 40.6012 25.7081C40.8814 25.1038 41.3607 24.7801 42.0154 24.7801C42.7022 24.7801 43.1579 25.1309 43.4874 25.7533C44.0372 26.7854 44.4994 27.9057 45.2076 28.7997C47.1417 31.2417 49.1378 33.6363 51.2003 35.9584C52.897 37.8686 53.4212 40.1364 52.4926 42.5784C52.0155 43.8345 51.5148 45.0839 51.027 46.3355C50.0963 48.7323 49.1678 51.129 48.2264 53.5485C49.9723 54.6484 50.5328 56.2916 50.4922 58.3149C50.4344 61.0851 50.4772 63.8576 50.4772 66.6301V67.5355H54.9637C54.9637 67.1598 54.9637 66.8519 54.9637 66.5419C54.9637 62.468 54.921 58.3941 54.998 54.3225C55.0151 53.4761 55.2804 52.4621 55.7811 51.8397C56.3887 51.0838 56.5192 50.3641 56.4914 49.4746C56.4379 47.6889 57.176 46.392 58.6737 45.5524C58.8876 45.4324 59.0952 45.0703 59.1059 44.8123C59.1529 43.6829 59.1166 42.5513 59.1294 41.4196C59.1422 40.2971 59.7584 39.5773 60.6912 39.5592C61.6519 39.5411 62.3087 40.2835 62.3258 41.44C62.3429 42.5422 62.3515 43.6467 62.3194 44.7489C62.3066 45.2083 62.4371 45.446 62.8436 45.6406C63.8727 46.134 64.5766 46.9941 64.812 48.1619C64.9596 48.8975 64.8847 49.6806 64.9532 50.4388C64.9788 50.7217 65.0537 51.077 65.2334 51.2513C66.1727 52.1611 66.5065 53.2814 66.5 54.5964C66.4786 58.6137 66.4936 62.6287 66.4936 66.646C66.4936 66.947 66.4936 67.2458 66.4936 67.6056C69.4526 67.6056 72.3024 67.6101 75.1544 67.6056C78.062 67.6011 79.795 65.7746 79.795 62.7102C79.7971 50.0382 79.795 37.3661 79.795 24.6919C79.795 24.3931 79.795 24.0966 79.795 23.8001H4.20584C4.20584 24.1441 4.20584 24.4474 4.20584 24.7507C4.20584 37.3661 4.20584 49.9816 4.20584 62.5993C4.20584 62.8822 4.19942 63.1651 4.21867 63.448C4.35346 65.494 5.89178 67.4223 7.78525 67.5264C10.3612 67.669 12.9479 67.5626 15.6416 67.5626V67.5603ZM4.21653 20.2943H79.7843C79.7843 16.3268 79.7843 12.4227 79.7822 8.52083C79.7822 8.38051 79.7543 8.24018 79.7287 8.10212C79.2965 5.7687 77.6105 4.3949 75.1501 4.3949C53.0489 4.3949 30.9498 4.3949 8.84859 4.3949C8.63464 4.3949 8.42069 4.3949 8.20887 4.40621C6.11857 4.50806 4.28286 6.30057 4.23793 8.52309C4.16091 12.4227 4.21653 16.3268 4.21653 20.2966V20.2943ZM40.4001 52.9464C40.4001 50.2056 40.3936 47.4942 40.4043 44.7851C40.4086 43.6195 41.0547 42.8976 42.0325 42.9157C42.9739 42.9315 43.5901 43.6399 43.5986 44.767C43.6115 46.8017 43.6029 48.8386 43.6029 50.8733C43.6029 51.5726 43.6029 52.2743 43.6029 53.0936C44.202 52.8944 44.8353 53.4082 45.1755 52.5187C46.6154 48.7526 48.0916 45.0001 49.5465 41.2408C49.968 40.1522 49.754 39.2016 48.9496 38.3891C48.2735 37.7056 47.5739 37.0448 46.9577 36.3047C45.2696 34.2768 43.6222 32.2127 41.9384 30.1395C41.9298 30.1508 41.8335 30.2414 41.7629 30.3523C39.8973 33.2696 37.6465 35.8294 35.2331 38.2398C34.1741 39.2967 34.0115 40.0866 34.5656 41.5011C35.9456 45.0205 37.3641 48.5218 38.6884 52.0638C39.0308 52.9781 39.4822 53.2429 40.4022 52.951L40.4001 52.9464ZM47.2786 67.5762V66.7433C47.2786 63.8327 47.2786 60.9245 47.2786 58.0139C47.2786 56.7487 47.0047 56.4455 45.8323 56.4432C43.2734 56.4364 40.7146 56.4364 38.1557 56.4432C37.0153 56.4455 36.7265 56.7533 36.7244 57.9437C36.7201 60.9109 36.7222 63.8758 36.7244 66.8429C36.7244 67.0851 36.7543 67.325 36.7714 67.5785H47.2765L47.2786 67.5762ZM25.524 67.5649C25.524 66.5668 25.524 65.666 25.524 64.763C25.524 59.9015 25.524 55.0377 25.524 50.1762C25.524 49.676 25.5646 49.2053 24.8586 49.2143C23.0721 49.2392 21.2835 49.203 19.4991 49.2483C19.2787 49.2528 18.9107 49.5719 18.8808 49.7847C18.7973 50.4116 18.8508 51.0589 18.8508 51.7537C19.6082 51.7537 20.2458 51.7447 20.8834 51.7537C21.9938 51.7718 22.7127 52.4259 22.7255 53.4149C22.7405 54.4357 21.9981 55.1237 20.8491 55.1418C20.2137 55.1509 19.5783 55.1418 18.9129 55.1418V57.2353C19.6745 57.2353 20.3656 57.2104 21.0567 57.2421C22.0387 57.2851 22.7169 57.9913 22.7255 58.9283C22.7341 59.8947 22.0259 60.5985 20.9989 60.6234C20.3143 60.6393 19.6275 60.6257 18.9107 60.6257V62.7577C19.6146 62.7577 20.2501 62.7464 20.8877 62.76C22.0088 62.7849 22.7169 63.4344 22.7276 64.4257C22.7405 65.4465 22.0066 66.1232 20.847 66.1458C20.2137 66.1571 19.5783 66.1458 18.9043 66.1458V67.5558H25.524V67.5649ZM63.2908 67.5603C63.2908 63.1017 63.2865 58.7495 63.2972 54.3972C63.2972 53.8766 63.0426 53.7997 62.6382 53.802C61.4101 53.8155 60.182 53.845 58.9561 53.7906C58.295 53.7612 58.1516 54.0215 58.1559 54.6711C58.1795 58.7427 58.1666 62.8165 58.1709 66.8882C58.1709 67.1054 58.203 67.3227 58.2222 67.5603H63.2908ZM61.8252 50.3708C61.7118 49.7824 61.7653 48.9925 61.4743 48.8047C61.0828 48.5512 60.304 48.5693 59.921 48.8386C59.6407 49.0355 59.7306 49.8231 59.6514 50.3708H61.8252Z"/>
</mask>
<path d="M83 7.82148V64.1768C82.9572 64.2786 82.893 64.3737 82.8716 64.48C82.0479 68.5313 79.2195 70.9711 75.302 70.996C73.8878 71.005 72.4736 70.996 71.0572 70.996C50.3189 70.996 29.5805 70.9982 8.84003 70.996C4.26788 70.996 1.0094 67.6645 1.00512 62.9456C0.99656 44.9775 0.99656 27.014 1.02223 9.05043C1.02223 8.13381 1.172 7.18098 1.44372 6.31188C2.4878 2.9713 5.2756 1 8.84431 1C30.9434 1 53.0446 1 75.1437 1C75.3576 1 75.5716 1 75.7834 1.00905C78.7338 1.16974 80.8883 2.6635 82.2169 5.436C82.5721 6.17835 82.7432 7.02028 82.9978 7.81695L83 7.82148ZM15.6416 67.5603C15.6416 64.1903 15.6416 60.9109 15.6416 57.6314C15.6416 55.0581 15.6244 52.4825 15.648 49.9091C15.6715 47.3947 17.1628 45.8398 19.5162 45.833C21.2514 45.8285 22.9865 45.8307 24.7195 45.833C27.2891 45.8353 28.7247 47.3562 28.7268 50.0902C28.7311 55.5786 28.7268 61.0648 28.7268 66.5532C28.7268 66.8814 28.7268 67.2095 28.7268 67.5558H33.5215C33.5215 67.205 33.5215 66.9017 33.5215 66.5985C33.5215 63.7128 33.5172 60.8271 33.5258 57.9437C33.5258 57.5228 33.5536 57.095 33.6178 56.6808C33.8382 55.2482 34.6811 54.2659 35.8044 53.4942C34.4329 49.9997 33.0829 46.5595 31.7329 43.1216C30.4984 39.9779 30.9284 37.9116 33.2348 35.5623C36.1103 32.6336 38.8168 29.5579 40.6012 25.7081C40.8814 25.1038 41.3607 24.7801 42.0154 24.7801C42.7022 24.7801 43.1579 25.1309 43.4874 25.7533C44.0372 26.7854 44.4994 27.9057 45.2076 28.7997C47.1417 31.2417 49.1378 33.6363 51.2003 35.9584C52.897 37.8686 53.4212 40.1364 52.4926 42.5784C52.0155 43.8345 51.5148 45.0839 51.027 46.3355C50.0963 48.7323 49.1678 51.129 48.2264 53.5485C49.9723 54.6484 50.5328 56.2916 50.4922 58.3149C50.4344 61.0851 50.4772 63.8576 50.4772 66.6301V67.5355H54.9637C54.9637 67.1598 54.9637 66.8519 54.9637 66.5419C54.9637 62.468 54.921 58.3941 54.998 54.3225C55.0151 53.4761 55.2804 52.4621 55.7811 51.8397C56.3887 51.0838 56.5192 50.3641 56.4914 49.4746C56.4379 47.6889 57.176 46.392 58.6737 45.5524C58.8876 45.4324 59.0952 45.0703 59.1059 44.8123C59.1529 43.6829 59.1166 42.5513 59.1294 41.4196C59.1422 40.2971 59.7584 39.5773 60.6912 39.5592C61.6519 39.5411 62.3087 40.2835 62.3258 41.44C62.3429 42.5422 62.3515 43.6467 62.3194 44.7489C62.3066 45.2083 62.4371 45.446 62.8436 45.6406C63.8727 46.134 64.5766 46.9941 64.812 48.1619C64.9596 48.8975 64.8847 49.6806 64.9532 50.4388C64.9788 50.7217 65.0537 51.077 65.2334 51.2513C66.1727 52.1611 66.5065 53.2814 66.5 54.5964C66.4786 58.6137 66.4936 62.6287 66.4936 66.646C66.4936 66.947 66.4936 67.2458 66.4936 67.6056C69.4526 67.6056 72.3024 67.6101 75.1544 67.6056C78.062 67.6011 79.795 65.7746 79.795 62.7102C79.7971 50.0382 79.795 37.3661 79.795 24.6919C79.795 24.3931 79.795 24.0966 79.795 23.8001H4.20584C4.20584 24.1441 4.20584 24.4474 4.20584 24.7507C4.20584 37.3661 4.20584 49.9816 4.20584 62.5993C4.20584 62.8822 4.19942 63.1651 4.21867 63.448C4.35346 65.494 5.89178 67.4223 7.78525 67.5264C10.3612 67.669 12.9479 67.5626 15.6416 67.5626V67.5603ZM4.21653 20.2943H79.7843C79.7843 16.3268 79.7843 12.4227 79.7822 8.52083C79.7822 8.38051 79.7543 8.24018 79.7287 8.10212C79.2965 5.7687 77.6105 4.3949 75.1501 4.3949C53.0489 4.3949 30.9498 4.3949 8.84859 4.3949C8.63464 4.3949 8.42069 4.3949 8.20887 4.40621C6.11857 4.50806 4.28286 6.30057 4.23793 8.52309C4.16091 12.4227 4.21653 16.3268 4.21653 20.2966V20.2943ZM40.4001 52.9464C40.4001 50.2056 40.3936 47.4942 40.4043 44.7851C40.4086 43.6195 41.0547 42.8976 42.0325 42.9157C42.9739 42.9315 43.5901 43.6399 43.5986 44.767C43.6115 46.8017 43.6029 48.8386 43.6029 50.8733C43.6029 51.5726 43.6029 52.2743 43.6029 53.0936C44.202 52.8944 44.8353 53.4082 45.1755 52.5187C46.6154 48.7526 48.0916 45.0001 49.5465 41.2408C49.968 40.1522 49.754 39.2016 48.9496 38.3891C48.2735 37.7056 47.5739 37.0448 46.9577 36.3047C45.2696 34.2768 43.6222 32.2127 41.9384 30.1395C41.9298 30.1508 41.8335 30.2414 41.7629 30.3523C39.8973 33.2696 37.6465 35.8294 35.2331 38.2398C34.1741 39.2967 34.0115 40.0866 34.5656 41.5011C35.9456 45.0205 37.3641 48.5218 38.6884 52.0638C39.0308 52.9781 39.4822 53.2429 40.4022 52.951L40.4001 52.9464ZM47.2786 67.5762V66.7433C47.2786 63.8327 47.2786 60.9245 47.2786 58.0139C47.2786 56.7487 47.0047 56.4455 45.8323 56.4432C43.2734 56.4364 40.7146 56.4364 38.1557 56.4432C37.0153 56.4455 36.7265 56.7533 36.7244 57.9437C36.7201 60.9109 36.7222 63.8758 36.7244 66.8429C36.7244 67.0851 36.7543 67.325 36.7714 67.5785H47.2765L47.2786 67.5762ZM25.524 67.5649C25.524 66.5668 25.524 65.666 25.524 64.763C25.524 59.9015 25.524 55.0377 25.524 50.1762C25.524 49.676 25.5646 49.2053 24.8586 49.2143C23.0721 49.2392 21.2835 49.203 19.4991 49.2483C19.2787 49.2528 18.9107 49.5719 18.8808 49.7847C18.7973 50.4116 18.8508 51.0589 18.8508 51.7537C19.6082 51.7537 20.2458 51.7447 20.8834 51.7537C21.9938 51.7718 22.7127 52.4259 22.7255 53.4149C22.7405 54.4357 21.9981 55.1237 20.8491 55.1418C20.2137 55.1509 19.5783 55.1418 18.9129 55.1418V57.2353C19.6745 57.2353 20.3656 57.2104 21.0567 57.2421C22.0387 57.2851 22.7169 57.9913 22.7255 58.9283C22.7341 59.8947 22.0259 60.5985 20.9989 60.6234C20.3143 60.6393 19.6275 60.6257 18.9107 60.6257V62.7577C19.6146 62.7577 20.2501 62.7464 20.8877 62.76C22.0088 62.7849 22.7169 63.4344 22.7276 64.4257C22.7405 65.4465 22.0066 66.1232 20.847 66.1458C20.2137 66.1571 19.5783 66.1458 18.9043 66.1458V67.5558H25.524V67.5649ZM63.2908 67.5603C63.2908 63.1017 63.2865 58.7495 63.2972 54.3972C63.2972 53.8766 63.0426 53.7997 62.6382 53.802C61.4101 53.8155 60.182 53.845 58.9561 53.7906C58.295 53.7612 58.1516 54.0215 58.1559 54.6711C58.1795 58.7427 58.1666 62.8165 58.1709 66.8882C58.1709 67.1054 58.203 67.3227 58.2222 67.5603H63.2908ZM61.8252 50.3708C61.7118 49.7824 61.7653 48.9925 61.4743 48.8047C61.0828 48.5512 60.304 48.5693 59.921 48.8386C59.6407 49.0355 59.7306 49.8231 59.6514 50.3708H61.8252Z" fill="#FD6F00"/>
<path d="M83 7.82148V64.1768C82.9572 64.2786 82.893 64.3737 82.8716 64.48C82.0479 68.5313 79.2195 70.9711 75.302 70.996C73.8878 71.005 72.4736 70.996 71.0572 70.996C50.3189 70.996 29.5805 70.9982 8.84003 70.996C4.26788 70.996 1.0094 67.6645 1.00512 62.9456C0.99656 44.9775 0.99656 27.014 1.02223 9.05043C1.02223 8.13381 1.172 7.18098 1.44372 6.31188C2.4878 2.9713 5.2756 1 8.84431 1C30.9434 1 53.0446 1 75.1437 1C75.3576 1 75.5716 1 75.7834 1.00905C78.7338 1.16974 80.8883 2.6635 82.2169 5.436C82.5721 6.17835 82.7432 7.02028 82.9978 7.81695L83 7.82148ZM15.6416 67.5603C15.6416 64.1903 15.6416 60.9109 15.6416 57.6314C15.6416 55.0581 15.6244 52.4825 15.648 49.9091C15.6715 47.3947 17.1628 45.8398 19.5162 45.833C21.2514 45.8285 22.9865 45.8307 24.7195 45.833C27.2891 45.8353 28.7247 47.3562 28.7268 50.0902C28.7311 55.5786 28.7268 61.0648 28.7268 66.5532C28.7268 66.8814 28.7268 67.2095 28.7268 67.5558H33.5215C33.5215 67.205 33.5215 66.9017 33.5215 66.5985C33.5215 63.7128 33.5172 60.8271 33.5258 57.9437C33.5258 57.5228 33.5536 57.095 33.6178 56.6808C33.8382 55.2482 34.6811 54.2659 35.8044 53.4942C34.4329 49.9997 33.0829 46.5595 31.7329 43.1216C30.4984 39.9779 30.9284 37.9116 33.2348 35.5623C36.1103 32.6336 38.8168 29.5579 40.6012 25.7081C40.8814 25.1038 41.3607 24.7801 42.0154 24.7801C42.7022 24.7801 43.1579 25.1309 43.4874 25.7533C44.0372 26.7854 44.4994 27.9057 45.2076 28.7997C47.1417 31.2417 49.1378 33.6363 51.2003 35.9584C52.897 37.8686 53.4212 40.1364 52.4926 42.5784C52.0155 43.8345 51.5148 45.0839 51.027 46.3355C50.0963 48.7323 49.1678 51.129 48.2264 53.5485C49.9723 54.6484 50.5328 56.2916 50.4922 58.3149C50.4344 61.0851 50.4772 63.8576 50.4772 66.6301V67.5355H54.9637C54.9637 67.1598 54.9637 66.8519 54.9637 66.5419C54.9637 62.468 54.921 58.3941 54.998 54.3225C55.0151 53.4761 55.2804 52.4621 55.7811 51.8397C56.3887 51.0838 56.5192 50.3641 56.4914 49.4746C56.4379 47.6889 57.176 46.392 58.6737 45.5524C58.8876 45.4324 59.0952 45.0703 59.1059 44.8123C59.1529 43.6829 59.1166 42.5513 59.1294 41.4196C59.1422 40.2971 59.7584 39.5773 60.6912 39.5592C61.6519 39.5411 62.3087 40.2835 62.3258 41.44C62.3429 42.5422 62.3515 43.6467 62.3194 44.7489C62.3066 45.2083 62.4371 45.446 62.8436 45.6406C63.8727 46.134 64.5766 46.9941 64.812 48.1619C64.9596 48.8975 64.8847 49.6806 64.9532 50.4388C64.9788 50.7217 65.0537 51.077 65.2334 51.2513C66.1727 52.1611 66.5065 53.2814 66.5 54.5964C66.4786 58.6137 66.4936 62.6287 66.4936 66.646C66.4936 66.947 66.4936 67.2458 66.4936 67.6056C69.4526 67.6056 72.3024 67.6101 75.1544 67.6056C78.062 67.6011 79.795 65.7746 79.795 62.7102C79.7971 50.0382 79.795 37.3661 79.795 24.6919C79.795 24.3931 79.795 24.0966 79.795 23.8001H4.20584C4.20584 24.1441 4.20584 24.4474 4.20584 24.7507C4.20584 37.3661 4.20584 49.9816 4.20584 62.5993C4.20584 62.8822 4.19942 63.1651 4.21867 63.448C4.35346 65.494 5.89178 67.4223 7.78525 67.5264C10.3612 67.669 12.9479 67.5626 15.6416 67.5626V67.5603ZM4.21653 20.2943H79.7843C79.7843 16.3268 79.7843 12.4227 79.7822 8.52083C79.7822 8.38051 79.7543 8.24018 79.7287 8.10212C79.2965 5.7687 77.6105 4.3949 75.1501 4.3949C53.0489 4.3949 30.9498 4.3949 8.84859 4.3949C8.63464 4.3949 8.42069 4.3949 8.20887 4.40621C6.11857 4.50806 4.28286 6.30057 4.23793 8.52309C4.16091 12.4227 4.21653 16.3268 4.21653 20.2966V20.2943ZM40.4001 52.9464C40.4001 50.2056 40.3936 47.4942 40.4043 44.7851C40.4086 43.6195 41.0547 42.8976 42.0325 42.9157C42.9739 42.9315 43.5901 43.6399 43.5986 44.767C43.6115 46.8017 43.6029 48.8386 43.6029 50.8733C43.6029 51.5726 43.6029 52.2743 43.6029 53.0936C44.202 52.8944 44.8353 53.4082 45.1755 52.5187C46.6154 48.7526 48.0916 45.0001 49.5465 41.2408C49.968 40.1522 49.754 39.2016 48.9496 38.3891C48.2735 37.7056 47.5739 37.0448 46.9577 36.3047C45.2696 34.2768 43.6222 32.2127 41.9384 30.1395C41.9298 30.1508 41.8335 30.2414 41.7629 30.3523C39.8973 33.2696 37.6465 35.8294 35.2331 38.2398C34.1741 39.2967 34.0115 40.0866 34.5656 41.5011C35.9456 45.0205 37.3641 48.5218 38.6884 52.0638C39.0308 52.9781 39.4822 53.2429 40.4022 52.951L40.4001 52.9464ZM47.2786 67.5762V66.7433C47.2786 63.8327 47.2786 60.9245 47.2786 58.0139C47.2786 56.7487 47.0047 56.4455 45.8323 56.4432C43.2734 56.4364 40.7146 56.4364 38.1557 56.4432C37.0153 56.4455 36.7265 56.7533 36.7244 57.9437C36.7201 60.9109 36.7222 63.8758 36.7244 66.8429C36.7244 67.0851 36.7543 67.325 36.7714 67.5785H47.2765L47.2786 67.5762ZM25.524 67.5649C25.524 66.5668 25.524 65.666 25.524 64.763C25.524 59.9015 25.524 55.0377 25.524 50.1762C25.524 49.676 25.5646 49.2053 24.8586 49.2143C23.0721 49.2392 21.2835 49.203 19.4991 49.2483C19.2787 49.2528 18.9107 49.5719 18.8808 49.7847C18.7973 50.4116 18.8508 51.0589 18.8508 51.7537C19.6082 51.7537 20.2458 51.7447 20.8834 51.7537C21.9938 51.7718 22.7127 52.4259 22.7255 53.4149C22.7405 54.4357 21.9981 55.1237 20.8491 55.1418C20.2137 55.1509 19.5783 55.1418 18.9129 55.1418V57.2353C19.6745 57.2353 20.3656 57.2104 21.0567 57.2421C22.0387 57.2851 22.7169 57.9913 22.7255 58.9283C22.7341 59.8947 22.0259 60.5985 20.9989 60.6234C20.3143 60.6393 19.6275 60.6257 18.9107 60.6257V62.7577C19.6146 62.7577 20.2501 62.7464 20.8877 62.76C22.0088 62.7849 22.7169 63.4344 22.7276 64.4257C22.7405 65.4465 22.0066 66.1232 20.847 66.1458C20.2137 66.1571 19.5783 66.1458 18.9043 66.1458V67.5558H25.524V67.5649ZM63.2908 67.5603C63.2908 63.1017 63.2865 58.7495 63.2972 54.3972C63.2972 53.8766 63.0426 53.7997 62.6382 53.802C61.4101 53.8155 60.182 53.845 58.9561 53.7906C58.295 53.7612 58.1516 54.0215 58.1559 54.6711C58.1795 58.7427 58.1666 62.8165 58.1709 66.8882C58.1709 67.1054 58.203 67.3227 58.2222 67.5603H63.2908ZM61.8252 50.3708C61.7118 49.7824 61.7653 48.9925 61.4743 48.8047C61.0828 48.5512 60.304 48.5693 59.921 48.8386C59.6407 49.0355 59.7306 49.8231 59.6514 50.3708H61.8252Z" stroke="#FD6F00" mask="url(#path-1-outside-1_1_1689)"/>
<path d="M25.9934 8.00001C28.7525 7.99559 30.9934 10.2276 31 12.9878C31.0066 15.7304 28.7503 17.9956 26.0066 18C23.2651 18.0044 21.0044 15.7459 21 13.0011C20.9956 10.2453 23.2342 8.00443 25.9934 8.00001ZM26.0176 11.3193C25.0935 11.3105 24.3304 12.042 24.3083 12.9569C24.2841 13.8895 25.0847 14.6939 26.0243 14.6807C26.9307 14.6674 27.6939 13.8939 27.6939 12.9901C27.6939 12.0773 26.9374 11.326 26.0176 11.3171V11.3193Z" fill="black"/>
<path d="M18 13.021C17.9889 15.7945 15.7566 18.0088 12.9767 18C10.2102 17.9911 7.99336 15.7481 8.00001 12.9702C8.00888 10.1967 10.2456 7.9868 13.0277 8.00006C15.8142 8.01332 18.011 10.2299 18 13.021ZM11.3208 12.9768C11.3119 13.9182 12.0479 14.6718 12.9811 14.6829C13.9255 14.6939 14.6659 13.9646 14.677 13.0166C14.6881 12.0619 13.9743 11.3326 13.021 11.3238C12.0678 11.3149 11.3296 12.031 11.323 12.979L11.3208 12.9768Z" fill="black"/>
<path d="M38.9878 8.00003C41.7743 7.99118 43.9956 10.1972 44 12.9801C44.0066 15.7608 41.7898 17.9934 39.0166 18C36.2456 18.0066 34.0044 15.7785 34 13.0111C33.9956 10.2281 36.2035 8.00666 38.9878 8.00003ZM40.677 13.0155C40.6859 12.0606 39.9721 11.3311 39.0188 11.3223C38.0656 11.3135 37.3296 12.0318 37.3208 12.9779C37.3141 13.9195 38.0479 14.6733 38.9834 14.6821C39.9277 14.691 40.6681 13.9615 40.677 13.0133V13.0155Z" fill="black"/>
<path d="M41.4622 40C40.6618 39.9779 39.992 39.278 40.0001 38.4716C40.0081 37.623 40.7121 36.9634 41.5729 37.0016C42.3914 37.0378 43.031 37.7276 42.9988 38.544C42.9687 39.3444 42.2547 40.0201 41.4622 39.998V40Z" fill="#FD6F00"/>
</svg>
