<svg width="33" height="33" viewBox="0 0 33 33" fill="none" xmlns="http://www.w3.org/2000/svg">
<g clip-path="url(#clip0_1_1776)">
<path d="M16.2541 2.92392C20.5926 2.92392 21.1064 2.94295 22.8126 3.01906C24.3983 3.08883 25.2546 3.35523 25.8254 3.57723C26.5802 3.869 27.1257 4.2242 27.6902 4.78871C28.2611 5.35956 28.6099 5.8987 28.9017 6.6535C29.1237 7.22435 29.3901 8.08698 29.4599 9.66634C29.536 11.3789 29.555 11.8927 29.555 16.2248C29.555 20.5633 29.536 21.0771 29.4599 22.7833C29.3901 24.369 29.1237 25.2253 28.9017 25.7961C28.6099 26.5509 28.2547 27.0964 27.6902 27.6609C27.1194 28.2318 26.5802 28.5806 25.8254 28.8724C25.2546 29.0944 24.3919 29.3608 22.8126 29.4306C21.1 29.5067 20.5863 29.5257 16.2541 29.5257C11.9156 29.5257 11.4018 29.5067 9.69563 29.4306C8.10992 29.3608 7.25364 29.0944 6.68279 28.8724C5.92799 28.5806 5.38251 28.2254 4.818 27.6609C4.24714 27.0901 3.89829 26.5509 3.60652 25.7961C3.38452 25.2253 3.11812 24.3627 3.04835 22.7833C2.97223 21.0707 2.95321 20.557 2.95321 16.2248C2.95321 11.8863 2.97223 11.3726 3.04835 9.66634C3.11812 8.08063 3.38452 7.22435 3.60652 6.6535C3.89829 5.8987 4.25348 5.35322 4.818 4.78871C5.38885 4.21785 5.92799 3.869 6.68279 3.57723C7.25364 3.35523 8.11626 3.08883 9.69563 3.01906C11.4018 2.94295 11.9156 2.92392 16.2541 2.92392ZM16.2541 -0.00012207C11.8458 -0.00012207 11.294 0.0189064 9.56243 0.0950202C7.83718 0.171134 6.65107 0.450218 5.62353 0.849816C4.5516 1.26844 3.64457 1.82027 2.74389 2.72729C1.83687 3.62797 1.28504 4.535 0.866418 5.60059C0.46682 6.63447 0.187736 7.81423 0.111622 9.53948C0.035508 11.2774 0.0164795 11.8292 0.0164795 16.2375C0.0164795 20.6458 0.035508 21.1976 0.111622 22.9292C0.187736 24.6544 0.46682 25.8405 0.866418 26.8681C1.28504 27.94 1.83687 28.847 2.74389 29.7477C3.64457 30.6484 4.5516 31.2066 5.61719 31.6188C6.65107 32.0184 7.83084 32.2975 9.55608 32.3736C11.2877 32.4498 11.8395 32.4688 16.2478 32.4688C20.656 32.4688 21.2078 32.4498 22.9394 32.3736C24.6647 32.2975 25.8508 32.0184 26.8783 31.6188C27.9439 31.2066 28.8509 30.6484 29.7516 29.7477C30.6523 28.847 31.2105 27.94 31.6228 26.8744C32.0224 25.8405 32.3014 24.6608 32.3776 22.9355C32.4537 21.2039 32.4727 20.6521 32.4727 16.2438C32.4727 11.8356 32.4537 11.2838 32.3776 9.55217C32.3014 7.82692 32.0224 6.64081 31.6228 5.61328C31.2232 4.535 30.6713 3.62797 29.7643 2.72729C28.8636 1.82661 27.9566 1.26844 26.891 0.856159C25.8571 0.456561 24.6774 0.177477 22.9521 0.101363C21.2142 0.0189064 20.6624 -0.00012207 16.2541 -0.00012207Z" fill="black"/>
<path d="M16.254 7.89673C11.6491 7.89673 7.91321 11.6327 7.91321 16.2375C7.91321 20.8424 11.6491 24.5784 16.254 24.5784C20.8589 24.5784 24.5948 20.8424 24.5948 16.2375C24.5948 11.6327 20.8589 7.89673 16.254 7.89673ZM16.254 21.648C13.2666 21.648 10.8436 19.225 10.8436 16.2375C10.8436 13.2501 13.2666 10.8271 16.254 10.8271C19.2415 10.8271 21.6644 13.2501 21.6644 16.2375C21.6644 19.225 19.2415 21.648 16.254 21.648Z" fill="black"/>
<path d="M26.8719 7.56676C26.8719 8.64504 25.9966 9.514 24.9247 9.514C23.8464 9.514 22.9774 8.63869 22.9774 7.56676C22.9774 6.48847 23.8527 5.61951 24.9247 5.61951C25.9966 5.61951 26.8719 6.49482 26.8719 7.56676Z" fill="black"/>
</g>
<defs>
<clipPath id="clip0_1_1776">
<rect width="32.4752" height="32.4752" fill="white" transform="translate(0.0164795 -0.00012207)"/>
</clipPath>
</defs>
</svg>
