<svg width="33" height="33" viewBox="0 0 33 33" fill="none" xmlns="http://www.w3.org/2000/svg">
<g clip-path="url(#clip0_1_1775)">
<path d="M30.5961 -0.00012207H2.92237C1.59672 -0.00012207 0.52478 1.04644 0.52478 2.34038V30.1283C0.52478 31.4222 1.59672 32.4751 2.92237 32.4751H30.5961C31.9217 32.4751 33 31.4222 33 30.1346V2.34038C33 1.04644 31.9217 -0.00012207 30.5961 -0.00012207ZM10.1595 27.6736H5.33898V12.1718H10.1595V27.6736ZM7.74925 10.0596C6.20161 10.0596 4.95207 8.81006 4.95207 7.26875C4.95207 5.72745 6.20161 4.47791 7.74925 4.47791C9.29056 4.47791 10.5401 5.72745 10.5401 7.26875C10.5401 8.80371 9.29056 10.0596 7.74925 10.0596ZM28.1985 27.6736H23.3843V20.1383C23.3843 18.3433 23.3526 16.0282 20.8789 16.0282C18.3735 16.0282 17.9929 17.9881 17.9929 20.0115V27.6736H13.1851V12.1718H17.8026V14.2903H17.8661C18.5067 13.0724 20.0797 11.7848 22.4202 11.7848C27.2978 11.7848 28.1985 14.9943 28.1985 19.1679V27.6736Z" fill="black"/>
</g>
<defs>
<clipPath id="clip0_1_1775">
<rect width="32.4752" height="32.4752" fill="white" transform="translate(0.52478 -0.00012207)"/>
</clipPath>
</defs>
</svg>
