<svg width="274" height="54" viewBox="0 0 274 54" fill="none" xmlns="http://www.w3.org/2000/svg">
<rect width="53" height="53" fill="#FF6300"/>
<path d="M7.83985 10.3257H16.3594L25.3576 32.2787H25.7405L34.7387 10.3257H43.2583V43H36.5575V21.733H36.2863L27.8305 42.8405H23.2676L14.8119 21.6532H14.5406V43H7.83985V10.3257Z" fill="white"/>
<path d="M73.4271 32.5659V18.4943H80.2237V43H73.6984V38.5488H73.4431C72.89 39.9846 71.97 41.1387 70.683 42.0108C69.4067 42.883 67.8485 43.3191 66.0084 43.3191C64.3705 43.3191 62.9293 42.9468 61.6848 42.2023C60.4404 41.4578 59.4672 40.3995 58.7652 39.0274C58.0739 37.6553 57.7229 36.012 57.7122 34.0975V18.4943H64.5087V32.885C64.5194 34.3315 64.9076 35.4749 65.6734 36.3152C66.4392 37.1554 67.4656 37.5756 68.7526 37.5756C69.5715 37.5756 70.3373 37.3894 71.05 37.0172C71.7626 36.6343 72.3369 36.0705 72.773 35.326C73.2197 34.5815 73.4378 33.6615 73.4271 32.5659ZM92.4566 28.8326V43H85.6601V10.3257H92.2651V22.8179H92.5523C93.1054 21.3714 93.9988 20.2386 95.2326 19.4196C96.4664 18.59 98.014 18.1752 99.8753 18.1752C101.577 18.1752 103.061 18.5475 104.327 19.292C105.603 20.0259 106.592 21.0842 107.294 22.4669C108.007 23.839 108.358 25.4822 108.347 27.3968V43H101.55V28.6093C101.561 27.0989 101.178 25.9236 100.402 25.0834C99.636 24.2431 98.5617 23.823 97.179 23.823C96.2537 23.823 95.4347 24.0198 94.7221 24.4133C94.0201 24.8068 93.467 25.3812 93.0628 26.1364C92.6693 26.8809 92.4672 27.7797 92.4566 28.8326ZM120.684 43.4627C119.12 43.4627 117.727 43.1915 116.504 42.649C115.28 42.0959 114.313 41.2823 113.6 40.208C112.898 39.1231 112.547 37.7723 112.547 36.1556C112.547 34.7942 112.797 33.6508 113.297 32.7255C113.797 31.8001 114.477 31.0556 115.339 30.4919C116.2 29.9282 117.179 29.5027 118.275 29.2155C119.381 28.9284 120.54 28.7263 121.753 28.6093C123.178 28.4604 124.326 28.3221 125.199 28.1945C126.071 28.0562 126.704 27.8541 127.097 27.5882C127.491 27.3223 127.688 26.9288 127.688 26.4076V26.3119C127.688 25.3014 127.368 24.5197 126.73 23.9666C126.103 23.4135 125.209 23.137 124.05 23.137C122.827 23.137 121.854 23.4082 121.13 23.9506C120.407 24.4824 119.928 25.1525 119.694 25.9609L113.408 25.4503C113.728 23.9613 114.355 22.6743 115.291 21.5894C116.227 20.4939 117.434 19.6536 118.913 19.0686C120.402 18.473 122.125 18.1752 124.082 18.1752C125.443 18.1752 126.746 18.3347 127.991 18.6538C129.246 18.9729 130.357 19.4675 131.325 20.1376C132.304 20.8076 133.075 21.6692 133.638 22.7222C134.202 23.7645 134.484 25.0143 134.484 26.4714V43H128.039V39.6017H127.847C127.454 40.3676 126.927 41.0429 126.268 41.6279C125.608 42.2023 124.816 42.6543 123.89 42.984C122.965 43.3031 121.896 43.4627 120.684 43.4627ZM122.63 38.7721C123.63 38.7721 124.513 38.5754 125.278 38.1818C126.044 37.7776 126.645 37.2352 127.081 36.5545C127.517 35.8738 127.735 35.1027 127.735 34.2411V31.6406C127.523 31.7789 127.23 31.9065 126.858 32.0235C126.496 32.1298 126.087 32.2309 125.629 32.3266C125.172 32.4117 124.715 32.4915 124.257 32.5659C123.8 32.6297 123.385 32.6882 123.013 32.7414C122.215 32.8584 121.519 33.0446 120.923 33.2998C120.327 33.5551 119.865 33.9008 119.535 34.3368C119.205 34.7623 119.04 35.2941 119.04 35.9323C119.04 36.8576 119.375 37.5649 120.045 38.0542C120.726 38.5328 121.588 38.7721 122.63 38.7721ZM139.757 43V18.4943H146.234V22.8179H146.522C147.032 21.382 147.883 20.2493 149.074 19.4196C150.265 18.59 151.691 18.1752 153.35 18.1752C155.03 18.1752 156.461 18.5953 157.642 19.4356C158.822 20.2652 159.609 21.3926 160.003 22.8179H160.258C160.758 21.4139 161.662 20.2918 162.97 19.4515C164.289 18.6006 165.847 18.1752 167.645 18.1752C169.932 18.1752 171.788 18.9038 173.213 20.3609C174.649 21.8074 175.367 23.8602 175.367 26.5193V43H168.586V27.8594C168.586 26.498 168.225 25.4769 167.501 24.7962C166.778 24.1155 165.874 23.7751 164.789 23.7751C163.555 23.7751 162.593 24.1687 161.901 24.9558C161.21 25.7322 160.864 26.7586 160.864 28.0349V43H154.275V27.7158C154.275 26.514 153.93 25.5567 153.238 24.8441C152.558 24.1315 151.659 23.7751 150.542 23.7751C149.787 23.7751 149.106 23.9666 148.5 24.3495C147.904 24.7218 147.431 25.2482 147.08 25.929C146.729 26.599 146.553 27.3861 146.553 28.2902V43H139.757ZM180.735 43V18.4943H187.213V22.8179H187.5C188.011 21.382 188.861 20.2493 190.053 19.4196C191.244 18.59 192.669 18.1752 194.328 18.1752C196.009 18.1752 197.439 18.5953 198.62 19.4356C199.801 20.2652 200.588 21.3926 200.981 22.8179H201.237C201.736 21.4139 202.641 20.2918 203.949 19.4515C205.268 18.6006 206.826 18.1752 208.623 18.1752C210.91 18.1752 212.766 18.9038 214.191 20.3609C215.627 21.8074 216.345 23.8602 216.345 26.5193V43H209.565V27.8594C209.565 26.498 209.203 25.4769 208.48 24.7962C207.757 24.1155 206.852 23.7751 205.768 23.7751C204.534 23.7751 203.571 24.1687 202.88 24.9558C202.189 25.7322 201.843 26.7586 201.843 28.0349V43H195.254V27.7158C195.254 26.514 194.908 25.5567 194.217 24.8441C193.536 24.1315 192.637 23.7751 191.52 23.7751C190.765 23.7751 190.085 23.9666 189.478 24.3495C188.883 24.7218 188.409 25.2482 188.058 25.929C187.707 26.599 187.532 27.3861 187.532 28.2902V43H180.735ZM228.702 43.4627C227.138 43.4627 225.745 43.1915 224.522 42.649C223.299 42.0959 222.331 41.2823 221.618 40.208C220.916 39.1231 220.565 37.7723 220.565 36.1556C220.565 34.7942 220.815 33.6508 221.315 32.7255C221.815 31.8001 222.496 31.0556 223.357 30.4919C224.219 29.9282 225.197 29.5027 226.293 29.2155C227.399 28.9284 228.558 28.7263 229.771 28.6093C231.196 28.4604 232.345 28.3221 233.217 28.1945C234.089 28.0562 234.722 27.8541 235.115 27.5882C235.509 27.3223 235.706 26.9288 235.706 26.4076V26.3119C235.706 25.3014 235.387 24.5197 234.748 23.9666C234.121 23.4135 233.227 23.137 232.068 23.137C230.845 23.137 229.872 23.4082 229.149 23.9506C228.425 24.4824 227.947 25.1525 227.713 25.9609L221.427 25.4503C221.746 23.9613 222.373 22.6743 223.309 21.5894C224.245 20.4939 225.452 19.6536 226.931 19.0686C228.42 18.473 230.143 18.1752 232.1 18.1752C233.461 18.1752 234.764 18.3347 236.009 18.6538C237.264 18.9729 238.375 19.4675 239.343 20.1376C240.322 20.8076 241.093 21.6692 241.657 22.7222C242.22 23.7645 242.502 25.0143 242.502 26.4714V43H236.057V39.6017H235.865C235.472 40.3676 234.945 41.0429 234.286 41.6279C233.626 42.2023 232.834 42.6543 231.909 42.984C230.983 43.3031 229.914 43.4627 228.702 43.4627ZM230.648 38.7721C231.648 38.7721 232.531 38.5754 233.297 38.1818C234.062 37.7776 234.663 37.2352 235.099 36.5545C235.536 35.8738 235.754 35.1027 235.754 34.2411V31.6406C235.541 31.7789 235.248 31.9065 234.876 32.0235C234.514 32.1298 234.105 32.2309 233.648 32.3266C233.19 32.4117 232.733 32.4915 232.276 32.5659C231.818 32.6297 231.403 32.6882 231.031 32.7414C230.233 32.8584 229.537 33.0446 228.941 33.2998C228.345 33.5551 227.883 33.9008 227.553 34.3368C227.223 34.7623 227.059 35.2941 227.059 35.9323C227.059 36.8576 227.394 37.5649 228.064 38.0542C228.744 38.5328 229.606 38.7721 230.648 38.7721ZM256.805 43.3989C254.944 43.3989 253.258 42.9202 251.748 41.963C250.248 40.9951 249.057 39.5752 248.174 37.7032C247.302 35.8206 246.866 33.5125 246.866 30.7791C246.866 27.9711 247.318 25.6365 248.222 23.7751C249.126 21.9032 250.328 20.5045 251.827 19.5792C253.338 18.6432 254.992 18.1752 256.789 18.1752C258.161 18.1752 259.305 18.4092 260.219 18.8772C261.145 19.3345 261.889 19.9089 262.453 20.6002C263.027 21.281 263.463 21.951 263.761 22.6105H263.969V10.3257H270.749V43H264.048V39.0753H263.761C263.442 39.756 262.99 40.4314 262.405 41.1014C261.831 41.7609 261.081 42.3086 260.156 42.7447C259.241 43.1808 258.124 43.3989 256.805 43.3989ZM258.959 37.9904C260.055 37.9904 260.98 37.6926 261.735 37.0969C262.501 36.4907 263.086 35.6451 263.49 34.5602C263.905 33.4753 264.112 32.2043 264.112 30.7471C264.112 29.29 263.91 28.0243 263.506 26.95C263.102 25.8758 262.517 25.0462 261.751 24.4612C260.985 23.8762 260.055 23.5837 258.959 23.5837C257.842 23.5837 256.901 23.8868 256.135 24.4931C255.369 25.0993 254.79 25.9396 254.396 27.0138C254.003 28.0881 253.806 29.3325 253.806 30.7471C253.806 32.1724 254.003 33.4328 254.396 34.5283C254.8 35.6132 255.38 36.4641 256.135 37.081C256.901 37.6872 257.842 37.9904 258.959 37.9904Z" fill="black"/>
</svg>
