<svg width="72" height="82" viewBox="0 0 72 82" fill="none" xmlns="http://www.w3.org/2000/svg">
<g clip-path="url(#clip0_1_1710)">
<path d="M48.3223 82H23.6814C22.6746 81.3978 22.3475 80.7871 22.5762 79.9479C22.7879 79.1791 23.4292 78.8011 24.5386 78.799C25.5946 78.799 26.6506 78.799 27.7408 78.799C28.2902 75.8094 28.8246 72.9138 29.3783 69.8986C28.9422 69.8986 28.6301 69.8986 28.318 69.8986C22.0012 69.8986 15.6844 69.9029 9.36756 69.8922C8.62365 69.8922 7.86478 69.873 7.14225 69.7235C2.83271 68.8416 0.0109835 65.3267 0.0067082 60.8444C-0.00398015 49.7467 0.000295191 38.6489 0.00457053 27.5511C0.00457053 22.0247 3.76473 18.2664 9.28847 18.2578C10.026 18.2578 10.7613 18.2578 11.5523 18.2578C11.5523 17.8371 11.5523 17.5211 11.5523 17.2051C11.5523 13.1499 11.5416 9.09474 11.5565 5.03958C11.5651 2.60307 12.8926 0.834948 15.1649 0.158021C15.2868 0.121719 15.4001 0.0533854 15.5176 0C29.1731 0 42.8264 0 56.4818 0C59.684 1.3026 60.4493 2.46 60.4493 6.00052C60.4493 9.78875 60.4493 13.577 60.4493 17.3652C60.4493 17.6449 60.4493 17.9268 60.4493 18.2578C61.3364 18.2578 62.1039 18.2557 62.8734 18.2578C68.1962 18.2813 71.9906 22.0674 71.9949 27.391C72.0034 38.5144 72.0013 49.6399 71.9884 60.7633C71.9884 61.5299 71.9243 62.3157 71.749 63.061C70.7743 67.2251 67.3262 69.8794 62.8756 69.8901C56.4797 69.9071 50.0816 69.8943 43.6857 69.8943C43.3736 69.8943 43.0615 69.8943 42.6233 69.8943C43.1834 72.9309 43.722 75.8479 44.265 78.7947C45.5198 78.7947 46.6913 78.7712 47.8606 78.8011C48.9038 78.8268 49.5493 79.5848 49.4638 80.5778C49.4018 81.3188 48.8867 81.6733 48.3202 81.9936L48.3223 82ZM14.8015 11.5099V58.3011H57.1894V11.5099H14.8015ZM68.7306 61.6559H3.21535C3.31582 62.0872 3.3714 62.4268 3.47401 62.7556C4.23929 65.2199 6.34062 66.6912 9.13883 66.6933C27.0525 66.6976 44.9662 66.6955 62.8798 66.6933C63.1193 66.6933 63.3587 66.6848 63.5981 66.6656C66.3258 66.4648 68.4014 64.464 68.7306 61.6559ZM11.4903 58.3246V29.8489H3.24742V58.3246H11.4903ZM68.7456 58.3182V29.8424H60.4942V58.3182H68.7456ZM14.7759 8.17865H57.1894C57.2193 8.04839 57.2407 7.995 57.2407 7.94375C57.2449 7.08958 57.2514 6.23755 57.2492 5.38339C57.2471 3.71562 56.7255 3.20312 55.0346 3.20312C42.3497 3.20312 29.6647 3.20312 16.9798 3.20312C16.766 3.20312 16.5523 3.19458 16.3406 3.20953C15.4877 3.27146 14.8443 3.80104 14.793 4.65307C14.7246 5.81474 14.7759 6.98495 14.7759 8.17865ZM41.0008 78.7627C40.4749 75.9055 39.9704 73.1295 39.4339 70.3598C39.3997 70.1805 39.109 69.9221 38.9358 69.9199C36.8601 69.8901 34.7845 69.9007 32.6425 69.9007C32.0931 72.8711 31.5523 75.7923 31.0008 78.7648H41.0029L41.0008 78.7627ZM11.4924 26.5603V21.5165C6.56935 21.0552 3.29658 23.0817 3.31796 26.5603H11.4924ZM60.4857 26.5539H68.7114C68.5874 24.2348 66.8602 22.1037 64.5558 21.6638C63.2432 21.414 61.873 21.4716 60.4878 21.3883V26.5539H60.4857Z" fill="#FD6F00"/>
<path d="M17.0037 38.9603C17.0037 34.7166 17.0016 30.4729 17.0037 26.2292C17.0058 23.5177 18.4899 22.0093 21.15 22.005C23.4423 22.0007 25.7346 21.9963 28.0269 22.005C30.3877 22.0158 31.9743 23.5415 31.9808 25.9392C32.0064 34.643 32.0064 43.3468 31.9808 52.0506C31.9743 54.4505 30.4048 55.9718 28.0333 55.987C25.6619 56.0021 23.2883 56.0064 20.9169 55.987C18.5519 55.9675 17.0144 54.4115 17.008 52.0159C16.993 47.6641 17.0037 43.3122 17.0037 38.9603ZM28.7946 39.062C28.7946 34.8205 28.7882 30.5768 28.801 26.3352C28.8032 25.6341 28.6706 25.2208 27.8345 25.2359C25.5978 25.277 23.3568 25.2684 21.12 25.2402C20.4144 25.2316 20.1941 25.5194 20.1963 26.2054C20.2091 34.7447 20.2112 43.284 20.1963 51.8212C20.1963 52.5418 20.4807 52.7625 21.15 52.756C23.3076 52.7322 25.4673 52.7496 27.6249 52.7474C28.7262 52.7474 28.7925 52.6781 28.7946 51.5485C28.7967 47.3871 28.7946 43.2256 28.7946 39.0641V39.062Z" fill="black"/>
<path d="M44.5324 22.0038C46.692 22.0038 48.8538 21.9952 51.0135 22.006C53.3529 22.019 54.9429 23.5525 54.9732 25.8917C55.01 28.6154 55.0078 31.3412 54.9732 34.067C54.945 36.3738 53.4222 37.9398 51.1023 37.9635C46.7007 38.0111 42.2991 38.0132 37.8974 37.9635C35.5168 37.9376 34.0114 36.3069 34.0049 33.9137C33.9984 31.2958 33.9984 28.6802 34.0049 26.0623C34.0114 23.5914 35.5818 22.0146 38.0491 22.0038C40.2087 21.9952 42.3705 22.0038 44.5302 22.0038H44.5324ZM37.2476 29.6608C37.9603 29.0798 38.5235 28.5895 39.1191 28.1402C40.577 27.0365 42.4009 27.0538 43.8349 28.1791C44.3439 28.5787 44.8681 28.9718 45.3165 29.434C45.9035 30.0388 46.3822 29.9632 46.9584 29.4167C48.2235 28.2115 49.6856 27.989 51.2929 28.6651C51.4099 28.7147 51.5355 28.7407 51.7391 28.8033C51.7391 27.8032 51.7435 26.8615 51.7391 25.9219C51.7348 25.4014 51.4294 25.2373 50.9463 25.2394C46.6552 25.2459 42.364 25.2459 38.0729 25.2394C37.488 25.2394 37.2411 25.4921 37.2498 26.0688C37.2649 27.2006 37.2541 28.3324 37.2541 29.6608H37.2476ZM44.4609 34.7409C46.5642 34.7409 48.6697 34.7604 50.773 34.7215C51.0849 34.715 51.6395 34.4601 51.6546 34.283C51.7066 33.6696 52.077 32.9482 51.3384 32.4471C50.2568 31.7142 49.3787 31.6206 48.7044 32.1663C47.0494 33.5119 45.1865 33.5119 43.5424 32.1641C43.0832 31.7883 42.6131 31.4233 42.1907 31.0086C41.6925 30.5204 41.2723 30.4988 40.7351 30.9805C39.7928 31.825 38.7812 32.594 37.8325 33.4342C37.5855 33.6523 37.462 34.013 37.2823 34.3068C37.6245 34.4515 37.9646 34.7172 38.3112 34.7237C40.3604 34.7625 42.4117 34.7431 44.4609 34.7431V34.7409Z" fill="black"/>
<path d="M44.49 55.9912C42.3562 55.9912 40.2224 55.9998 38.0907 55.989C35.5583 55.976 34.0115 54.4161 34.005 51.8848C34.0007 49.2648 33.9963 46.6426 34.005 44.0225C34.0137 41.6383 35.5713 40.0287 37.9391 40.0178C42.3129 39.9941 46.6889 39.9941 51.0627 40.0178C53.372 40.0308 54.9383 41.5713 54.9708 43.8754C55.0097 46.6317 55.0097 49.3881 54.9708 52.1444C54.9361 54.4464 53.3633 55.9674 51.0497 55.989C48.8617 56.0106 46.6759 55.9933 44.4879 55.9955L44.49 55.9912ZM49.5679 52.748C50.0055 52.748 50.3283 52.748 50.6511 52.748C51.6606 52.7394 51.7408 52.6637 51.7408 51.6208C51.7451 49.1609 51.7256 46.6988 51.7516 44.2389C51.7603 43.5098 51.496 43.2372 50.7551 43.2415C46.5936 43.2653 42.432 43.2653 38.2727 43.2415C37.5015 43.2372 37.2198 43.5055 37.2328 44.2822C37.2675 46.5257 37.2458 48.7693 37.2458 51.015C37.2458 52.8497 37.2697 52.8714 39.1067 52.7372C39.1825 52.7307 39.2562 52.6939 39.4122 52.6463C39.475 50.9372 39.1825 49.1306 40.5495 47.6919C41.9338 46.2337 43.695 46.3332 45.4562 46.3786C46.4917 46.4046 47.3973 46.7702 48.1858 47.4539C49.8106 48.8667 49.5701 50.7922 49.5679 52.748ZM46.3206 52.7177C46.3206 51.9497 46.3423 51.253 46.3141 50.5585C46.2881 49.9441 45.8982 49.5633 45.3154 49.639C44.4337 49.7559 43.2097 49.0484 42.77 50.3292C42.5274 51.0367 42.7267 51.8978 42.7267 52.7177H46.3228H46.3206Z" fill="black"/>
<path d="M38.9871 18.9987C34.3094 18.9987 29.6318 19.0027 24.9541 18.9967C23.7258 18.9967 23.0376 18.4722 23.0012 17.5594C22.9712 16.7767 23.5093 16.1522 24.3389 16.0401C24.654 15.998 24.9777 16 25.2993 16C34.4424 16 43.5833 16 52.7263 16C53.0458 16 53.3716 16 53.6846 16.0441C54.4499 16.1542 54.9708 16.7187 54.9987 17.4333C55.0287 18.19 54.5314 18.8045 53.7382 18.9406C53.3995 18.9987 53.0479 18.9967 52.7006 18.9967C48.1302 19.0007 43.5576 18.9987 38.9871 18.9967V18.9987Z" fill="#FD6F00"/>
<path d="M17 17.497C17 16.6555 17.637 16.0082 18.4715 16.0001C19.2979 15.992 19.9752 16.6413 19.9994 17.4585C20.0236 18.296 19.3161 19.01 18.4715 18.9999C17.647 18.9898 17 18.3303 17 17.4949V17.497Z" fill="#FD6F00"/>
<path d="M52.5574 4.0108C52.9115 4.0108 53.2697 3.98453 53.6217 4.01687C54.3767 4.08356 54.9363 4.6636 54.9954 5.39927C55.0503 6.09451 54.6128 6.82815 53.8965 6.91505C52.9766 7.02419 52.0243 7.03025 51.1045 6.92112C50.3454 6.83017 49.9384 6.1127 50.0076 5.34268C50.0727 4.60701 50.6303 4.06739 51.4158 4.01283C51.7943 3.98655 52.1769 4.00878 52.5574 4.00878V4.01283V4.0108Z" fill="#FD6F00"/>
<path d="M24.4597 34.991C23.8362 34.991 23.2127 35.0148 22.5914 34.985C21.6736 34.9393 20.9957 34.2872 21 33.4978C21.0044 32.7085 21.6824 32.0485 22.6045 32.0246C23.8754 31.9928 25.1507 31.9908 26.4217 32.0246C27.3569 32.0505 28.0043 32.6966 28 33.5078C27.9956 34.317 27.3438 34.9413 26.4086 34.983C25.7611 35.0128 25.1093 34.989 24.4597 34.989V34.991Z" fill="black"/>
<path d="M24.5676 43.0048C25.1364 43.0048 25.7051 42.9928 26.2739 43.0068C27.32 43.0346 28.0108 43.6462 27.9999 44.5147C27.989 45.3513 27.3112 45.9649 26.3131 45.9828C25.095 46.0047 23.8768 46.0067 22.6586 45.9828C21.691 45.9609 20.9871 45.2956 21.0002 44.4788C21.0133 43.6601 21.7193 43.0486 22.7 43.0068C22.7545 43.0048 22.8089 43.0068 22.8634 43.0068C23.4322 43.0068 24.001 43.0068 24.5698 43.0068L24.5676 43.0048Z" fill="black"/>
<path d="M24.5585 27.01C25.1839 27.01 25.8093 26.984 26.4325 27.016C27.3521 27.064 27.9753 27.6561 27.9993 28.4462C28.0233 29.2403 27.4436 29.9084 26.5284 29.9524C25.2013 30.0144 23.8655 30.0145 22.5384 29.9604C21.5883 29.9224 20.9585 29.2243 21.0021 28.4262C21.0435 27.6441 21.682 27.078 22.6016 27.01C22.6561 27.006 22.7106 27.004 22.765 27.004C23.3621 27.004 23.9614 27.004 24.5585 27.004C24.5585 27.006 24.5585 27.008 24.5585 27.01Z" fill="black"/>
<path d="M24.4598 39.986C23.8345 39.986 23.2071 40.022 22.5862 39.978C21.6233 39.9081 20.985 39.2785 21.0003 38.477C21.0133 37.6716 21.6756 37.048 22.6342 37.024C23.8825 36.992 25.1351 36.992 26.3834 37.024C27.3463 37.048 27.9912 37.6676 27.9999 38.485C28.0086 39.2785 27.4182 39.8641 26.4967 39.978C26.4161 39.988 26.3355 40 26.2527 40C25.6558 40 25.0567 40 24.4598 40C24.4598 39.996 24.4598 39.99 24.4598 39.986Z" fill="black"/>
<path d="M24.5379 48.0091C25.1633 48.0091 25.7887 47.9851 26.4119 48.0151C27.3359 48.061 27.9657 48.6384 27.9984 49.4255C28.0354 50.2466 27.4318 50.9158 26.4686 50.9578C25.1676 51.0137 23.8601 51.0137 22.5592 50.9598C21.6025 50.9198 20.9705 50.2426 21.0011 49.4435C21.0316 48.6384 21.6919 48.051 22.6616 48.0131C23.2848 47.9871 23.9124 48.0091 24.5357 48.0111L24.5379 48.0091Z" fill="black"/>
</g>
<defs>
<clipPath id="clip0_1_1710">
<rect width="72" height="82" fill="white"/>
</clipPath>
</defs>
</svg>
